<?xml version="1.0" encoding="iso-8859-1"?>
<!-- Generator: Adobe Illustrator 19.0.0, SVG Export Plug-In . SVG Version: 6.00 Build 0)  -->
<svg version="1.1" id="Layer_1" xmlns="http://www.w3.org/2000/svg" xmlns:xlink="http://www.w3.org/1999/xlink" x="0px" y="0px"
	 viewBox="0 0 512 512" style="enable-background:new 0 0 512 512;" xml:space="preserve">
<g>
	<path style="fill:#0F81E0;" d="M406.069,512H105.931C47.431,512,0,464.569,0,406.069V105.931C0,47.431,47.431,0,105.931,0h300.138
		C464.569,0,512,47.431,512,105.931v300.138C512,464.569,464.569,512,406.069,512L406.069,512z"/>
	<g>
		<path style="fill:#FFFFFF;" d="M158.879,353.082c-2.26,0-4.52-0.865-6.241-2.586l-87.729-87.72c-1.095-0.9-1.96-2.048-2.525-3.399
			c-1.368-3.302-0.689-7.089,1.836-9.622l88.338-88.329c3.452-3.452,9.039-3.452,12.482,0c3.452,3.452,3.452,9.039,0,12.482
			l-82.017,82.017l82.097,82.088c3.452,3.452,3.452,9.031,0,12.482C163.399,352.217,161.139,353.082,158.879,353.082"/>
		<path style="fill:#FFFFFF;" d="M353.491,353.159c-2.26,0-4.52-0.865-6.241-2.587c-3.452-3.452-3.452-9.031,0-12.482l82.008-82.017
			l-82.088-82.088c-3.443-3.443-3.443-9.031,0-12.482c3.452-3.452,9.039-3.452,12.482,0l87.746,87.737
			c1.077,0.892,1.942,2.039,2.507,3.381c1.359,3.302,0.68,7.097-1.845,9.622l-88.329,88.329
			C358.011,352.294,355.751,353.159,353.491,353.159"/>
		<path style="fill:#FFFFFF;" d="M256,304.737c-4.882,0-8.828-3.955-8.828-8.828v-4.599c0-27.445,11.564-53.036,31.718-70.215
			c7.892-6.727,12.42-16.525,12.42-26.889c0-19.138-16.172-35.31-35.31-35.31c-19.474,0-35.31,15.837-35.31,35.31
			c0,4.873-3.946,8.828-8.828,8.828c-4.882,0-8.828-3.955-8.828-8.828c0-29.21,23.755-52.966,52.966-52.966
			c28.707,0,52.966,24.258,52.966,52.966c0,15.545-6.797,30.243-18.626,40.333c-16.207,13.815-25.512,34.507-25.512,56.77v4.599
			C264.828,300.782,260.882,304.737,256,304.737"/>
		<path style="fill:#FFFFFF;" d="M269.241,339.862c0-7.309-5.932-13.241-13.241-13.241s-13.241,5.932-13.241,13.241
			s5.932,13.241,13.241,13.241S269.241,347.171,269.241,339.862"/>
	</g>
</g>
<g>
</g>
<g>
</g>
<g>
</g>
<g>
</g>
<g>
</g>
<g>
</g>
<g>
</g>
<g>
</g>
<g>
</g>
<g>
</g>
<g>
</g>
<g>
</g>
<g>
</g>
<g>
</g>
<g>
</g>
</svg>
